<svg xmlns="http://www.w3.org/2000/svg" xmlns:xlink="http://www.w3.org/1999/xlink" id="Layer_1" x="0" y="0" version="1.1" viewBox="0 0 44.4 44.4" xml:space="preserve" style="enable-background:new 0 0 44.4 44.4"><style type="text/css">.st0{stroke:#f5a252}.st0,.st1,.st2{fill:none;stroke-width:5;stroke-miterlimit:10}.st1{stroke:#579aca}.st2{stroke:#e66581}</style><title>logo</title><g><path d="M33.9,6.4c3.6,3.9,3.4,9.9-0.5,13.5s-9.9,3.4-13.5-0.5s-3.4-9.9,0.5-13.5l0,0C24.2,2.4,30.2,2.6,33.9,6.4z" class="st0"/><path d="M35.1,27.3c2.6,4.6,1.1,10.4-3.5,13c-4.6,2.6-10.4,1.1-13-3.5s-1.1-10.4,3.5-13l0,0 C26.6,21.2,32.4,22.7,35.1,27.3z" class="st1"/><path d="M25.9,17.8c2.6,4.6,1.1,10.4-3.5,13s-10.4,1.1-13-3.5s-1.1-10.4,3.5-13l0,0C17.5,11.7,23.3,13.2,25.9,17.8z" class="st2"/><path d="M19.2,26.4c3.1-4.3,9.1-5.2,13.3-2.1c1.1,0.8,2,1.8,2.7,3" class="st1"/><path d="M19.9,19.4c-3.6-3.9-3.4-9.9,0.5-13.5s9.9-3.4,13.5,0.5" class="st0"/></g></svg>